<?xml version="1.0" encoding="utf-8"?>
<svg viewBox="115.398 48.974 144.948 102.733" xmlns="http://www.w3.org/2000/svg">
  <path style="stroke: rgb(0, 0, 0); fill: #5a5aff;" d="M 141.203 92.111 C 139.333 101.461 135.655 110.986 132.795 120.138 C 130.031 128.984 127.063 138.054 122.145 145.923 C 116.924 154.276 115.418 153.628 115.418 143.681 C 115.418 140.161 115.234 140.43 115.979 136.954 C 116.662 133.764 117.189 130.521 118.221 127.425 C 123.839 110.571 133.649 95.289 144.566 81.461 C 149.719 74.935 156.302 68.079 163.624 64.084 C 165.408 63.112 169.793 60.163 172.033 62.403 C 178.438 68.808 165.772 85.676 162.503 90.43 C 154.309 102.349 144.772 112.321 135.037 122.941 C 133.012 125.15 124.19 131.881 125.508 135.833 C 126.573 139.027 130.629 140.27 133.355 141.439 C 141.176 144.79 149.336 147.139 157.459 149.847"/>
  <path style="stroke: rgb(0, 0, 0); fill: #5a5aff;" d="M 165.919 95.291 C 159.893 92.881 150.857 103.918 153.027 110.426 C 153.64 112.266 162.543 119.408 161.996 119.955 C 156.147 125.804 142.657 126.401 136.211 132.848"/>
  <path style="stroke: rgb(0, 0, 0); fill: #5a5aff;" d="M 161.131 120.722 C 161.871 120.279 171.781 115.117 171.781 115.117 C 171.781 115.117 166.251 119.377 165.615 121.283 C 163.254 128.366 173.071 127.28 176.266 124.086 C 185.966 114.385 192.414 97.773 197.566 85.408 C 199.221 81.436 200.135 77.142 201.49 73.077 C 202.084 71.295 203.273 69.307 203.732 67.471 C 203.919 66.724 205.063 65.229 204.292 65.229 C 202.17 65.229 198.183 75.642 197.566 77 C 192.084 89.06 189.637 101.59 187.476 114.556 C 187.223 116.079 184.547 126.201 185.795 127.449 C 188.032 129.686 190.84 119.601 190.84 119.601 C 190.84 119.601 189.946 127.055 193.642 125.207 C 195.135 124.461 196.391 122.458 197.005 121.843 C 197.204 121.645 197.859 123.659 199.248 122.965 C 200.176 122.5 201.213 118.48 202.05 118.48 C 202.309 118.48 200.984 125.74 204.292 124.086 C 208.108 122.178 210.183 112.442 211.579 108.951 C 217.308 94.628 221.486 80.3 225.032 65.229 C 225.244 64.329 230.077 48.974 230.077 48.974 C 230.077 48.974 228.854 51.929 228.396 53.458 C 226.709 59.081 224.506 64.556 222.79 70.274 C 217.22 88.842 214.016 107.912 210.458 126.888 C 210.096 128.821 206.479 141.967 208.216 143.704 C 209.119 144.607 212.17 135.827 212.701 135.296 C 213.128 134.869 224.572 127.549 225.593 128.57 C 227.096 130.073 221.894 133.279 222.79 134.175 C 223.722 135.107 227.219 132.426 227.835 131.933 C 232.122 128.504 236.536 125.196 240.727 121.843 C 241.33 121.362 245.049 117.865 243.53 117.359 C 240.465 116.337 235.144 121.822 233.44 123.525 C 228.66 128.305 215.532 145.386 230.638 145.386 C 232.543 145.386 234.395 144.727 236.243 144.265 C 239.76 143.386 243.722 141.488 246.893 139.781 C 251.467 137.318 256.015 134.26 260.346 131.373"/>
</svg>